<?xml version="1.0" standalone="no"?>
<!DOCTYPE svg PUBLIC "-//W3C//DTD SVG 20010904//EN"
 "http://www.w3.org/TR/2001/REC-SVG-20010904/DTD/svg10.dtd">
<svg version="1.0" xmlns="http://www.w3.org/2000/svg"
 width="1900.000000pt" height="1900.000000pt" viewBox="0 0 1900.000000 1900.000000"
 preserveAspectRatio="xMidYMid meet">
<metadata>
Created by potrace 1.14, written by Peter Selinger 2001-2017
</metadata>
<g transform="translate(0.000000,1900.000000) scale(0.100000,-0.100000)"
fill="#000000" stroke="none">
<path d="M0 15500 l0 -3500 1500 0 1500 0 0 500 0 500 -1000 0 -1000 0 0 500
0 500 1000 0 1000 0 0 500 0 500 -1000 0 -1000 0 0 500 0 500 1000 0 1000 0 0
500 0 500 -1000 0 -1000 0 0 500 0 500 1500 0 1500 0 0 -3000 0 -3000 1500 0
1500 0 0 1500 0 1500 -1000 0 -1000 0 0 1500 0 1500 500 0 500 0 0 -1000 0
-1000 500 0 500 0 0 1500 0 1500 -3500 0 -3500 0 0 -3500z m6000 -2000 l0
-500 -500 0 -500 0 0 500 0 500 500 0 500 0 0 -500z"/>
<path d="M8000 16500 l0 -2500 500 0 500 0 0 2000 0 2000 500 0 500 0 0 -2000
0 -2000 500 0 500 0 0 1000 0 1000 500 0 500 0 0 -1000 0 -1000 500 0 500 0 0
1000 0 1000 500 0 500 0 0 -1000 0 -1000 500 0 500 0 0 1000 0 1000 500 0 500
0 0 -1000 0 -1000 500 0 500 0 0 2000 0 2000 500 0 500 0 0 -2500 0 -2500
-1000 0 -1000 0 0 -500 0 -500 1000 0 1000 0 0 -2500 0 -2500 -3000 0 -3000 0
0 -500 0 -500 1000 0 1000 0 0 -500 0 -500 -1500 0 -1500 0 0 2000 0 2000
-500 0 -500 0 0 -2500 0 -2500 2500 0 2500 0 0 1000 0 1000 2000 0 2000 0 0
6500 0 6500 -1500 0 -1500 0 0 -1000 0 -1000 -2500 0 -2500 0 0 1000 0 1000
-1500 0 -1500 0 0 -2500z"/>
<path d="M12000 18500 l0 -500 500 0 500 0 0 500 0 500 -500 0 -500 0 0 -500z"/>
<path d="M14000 18500 l0 -500 500 0 500 0 0 500 0 500 -500 0 -500 0 0 -500z"/>
<path d="M8000 12500 l0 -500 3500 0 3500 0 0 500 0 500 -3500 0 -3500 0 0
-500z"/>
<path d="M0 5500 l0 -5500 500 0 500 0 0 5000 0 5000 500 0 500 0 0 -5000 0
-5000 8500 0 8500 0 0 1500 0 1500 -6500 0 -6500 0 0 -1000 0 -1000 -500 0
-500 0 0 1000 0 1000 -500 0 -500 0 0 -1000 0 -1000 -500 0 -500 0 0 1500 0
1500 3000 0 3000 0 0 500 0 500 -3000 0 -3000 0 0 500 0 500 1000 0 1000 0 0
2500 0 2500 -500 0 -500 0 0 -2000 0 -2000 -500 0 -500 0 0 2000 0 2000 -1500
0 -1500 0 0 -5500z m18000 -4000 l0 -500 -5500 0 -5500 0 0 500 0 500 5500 0
5500 0 0 -500z"/>
<path d="M6000 9500 l0 -1500 1000 0 1000 0 0 -500 0 -500 -1000 0 -1000 0 0
-500 0 -500 1500 0 1500 0 0 2500 0 2500 -1500 0 -1500 0 0 -1500z m2000 0 l0
-500 -500 0 -500 0 0 500 0 500 500 0 500 0 0 -500z"/>
<path d="M10000 10500 l0 -500 500 0 500 0 0 500 0 500 -500 0 -500 0 0 -500z"/>
<path d="M12000 10500 l0 -500 1000 0 1000 0 0 -500 0 -500 -1000 0 -1000 0 0
-500 0 -500 1500 0 1500 0 0 1500 0 1500 -1500 0 -1500 0 0 -500z"/>
<path d="M16000 10500 l0 -500 500 0 500 0 0 500 0 500 -500 0 -500 0 0 -500z"/>
<path d="M16000 8500 l0 -500 500 0 500 0 0 500 0 500 -500 0 -500 0 0 -500z"/>
<path d="M16000 4500 l0 -500 500 0 500 0 0 500 0 500 -500 0 -500 0 0 -500z"/>
<path d="M18000 4500 l0 -500 500 0 500 0 0 500 0 500 -500 0 -500 0 0 -500z"/>
</g>
</svg>
