<svg version="1.0" xmlns="http://www.w3.org/2000/svg" width="2666.667" height="2666.667" viewBox="0 0 2000 2000"><path d="M1113.8 56.5c-.1.1-4.6.5-9.8.9-5.2.4-10.6.8-12 1-2.4.4-5.1.8-16 2.1-2.5.4-6.7 1-9.5 1.5-2.7.5-6.3 1.2-8 1.5-1.6.3-4.1.7-5.5 1-1.4.3-3.6.7-5 1-5.3 1-27.7 6.7-31.7 8-2.3.8-5.2 1.6-6.5 1.9-1.3.2-6.9 2.1-12.6 4-49.4 17.2-92.4 40-133.2 70.5-15.5 11.6-39.7 32.7-38.7 33.7.6.7 3.8 1.1 12.7 1.8 4.1.4 8.6.8 10 1 1.4.3 5.5.7 9.2 1.1 3.7.3 7.7.8 9 1 1.3.2 4.9.6 8.2 1 3.2.4 6.8.8 8 1 1.1.2 4.4.6 7.1 1 7.6.9 30.8 4.5 32.5 5 .8.2 3.3.6 5.5 1 2.2.3 4.7.7 5.5 1 .8.2 3.1.6 5 .9 9.3 1.5 40.1 8.6 54.9 12.7 45.9 12.8 105.3 37.1 135.4 55.4 5.4 3.3 11.1 6.7 12.6 7.6 6 3.6 89.8 54.3 93.1 56.4 1.9 1.2 5.4 3.4 7.7 4.8 2.4 1.5 4.7 2.7 5.2 2.7s1.1.3 1.3.7c.2.5 1.5 1.5 3 2.3 1.6.8 9.7 5.7 18 10.8 8.4 5.1 16.7 10 18.3 11 1.7.9 3.2 1.9 3.5 2.2.3.3 1.6 1.1 3 1.9 1.4.8 11 6.6 21.3 12.8l18.8 11.4 6.7-4.2c3.7-2.4 7.6-4.7 8.7-5.3 1.1-.6 10.9-6.5 21.8-13.1s21-12.7 22.5-13.6c18.7-11.1 90.4-54.6 92.4-56 1.4-1.1 2.8-1.9 3-1.9.2 0 7.7-4.4 16.6-9.8 8.9-5.3 27.8-16.7 41.9-25.2 14.2-8.5 27.2-16.4 28.9-17.6l3.2-2.1-10.7-6.5c-5.8-3.6-17.6-10.8-26.1-16-8.5-5.2-22.2-13.6-30.5-18.7-8.2-5.1-15.9-9.8-17-10.4-1.1-.7-4.4-2.7-7.5-4.6-3-1.9-8.6-5.3-12.5-7.6-3.8-2.3-20-12.2-36-22-37.6-23.1-50.2-30.8-52.3-32-.9-.6-4.9-2.9-8.8-5.2-28.8-17-82.9-38.7-121.4-48.6-18.3-4.7-42.1-9.6-55-11.2-2.5-.3-6.1-.8-8-1-1.9-.2-6.2-.7-9.5-1.1-3.3-.3-7.3-.8-9-1.1-3.5-.5-61.1-1.3-61.7-.8zM806.8 268.5c-.1.1-5 .6-10.8 1-5.8.4-11.8.8-13.5 1-9.8.9-16.2 1.7-17.5 2-.8.2-4 .7-7 1-16.1 1.7-56.7 11.3-81.7 19.4-8 2.6-33.1 12.5-40.8 16.1-24.1 11.2-35.6 17.4-55.5 29.8-17.2 10.8-41.6 29-57.5 43.1-7.3 6.5-33 32.5-39.1 39.6-4.9 5.6-20.8 25.4-24.2 30-18.7 25.5-40.6 66.2-52.9 98.5-2.8 7.5-9.2 25.8-9.8 28-.2.8-1.3 4.4-2.4 8-2.7 9-4.8 17.1-7.6 30-2.3 10.6-2.5 11.2-3 14.5-.3 1.6-.7 4.1-1 5.5-1.4 7.7-2.4 14.1-3 20.5-.3 2.7-.7 6.3-1 8-2.7 17.4-2.7 68.5 0 94 1.1 11.3 1.6 15.6 2 17.3.2 1 .6 4.3 1 7.3s1.3 9.2 2.2 13.9c.8 4.7 1.7 9.8 2 11.5 1 6.5 7.3 32.8 9.4 39.7 1.2 4 2.3 7.7 2.5 8.3 1.1 5.8 10 30.3 16.5 45.8 4.4 10.6 16.6 35.3 21.7 44.2 5.8 10 21.1 33.9 24.4 38 .4.5 5.2 6.6 10.6 13.5 17.3 22 38.3 43.5 60.2 61.4 12.6 10.2 12 9.8 16 12.6 1.9 1.3 3.7 2.7 4 3.1 2.2 2.9 46.8 30.2 73 44.7 2.5 1.3 5.2 3.1 6.1 3.8.8.8 1.8 1.4 2.1 1.4.3 0 19.2 10.9 41.9 24.1 22.8 13.3 43.4 25.3 45.9 26.7 2.5 1.4 10.4 6 17.5 10.2 7.2 4.2 15.1 8.8 17.6 10.2 8.6 4.8 9.4 5.3 9.9 5.9.3.3 3 1.9 6 3.5s6.6 3.6 8 4.5c1.4.9 5.7 3.4 9.5 5.7 13 7.5 37 21.4 46.5 27 5.2 3.1 10.9 6.4 12.6 7.3 3.3 1.8 74.5 43.3 108.9 63.4 56.8 33.2 86.8 50.5 87.6 50.5.5 0 .9.4.9 1 0 .5.4 1 .9 1s5.5 2.7 11.1 6 10.3 6 10.5 6c.2 0 2.3 1.3 4.7 2.9 16.7 11.1 44.6 22.3 67.4 27.2 26 5.4 52.5 4.8 75.3-1.8 27.7-8 54.1-30.6 68.1-58.3 3.1-6.1 7.8-17.7 8.5-21 .2-.8 1.2-4.4 2.1-8 1.4-5.1 1.8-10.1 1.7-23-.1-16.4-.2-17.3-4.6-32.5-2-7-12.5-28.9-14.5-30.5-.4-.3-2.3-2.8-4.2-5.5-4.2-6.1-7.5-9.9-16-18.5-8.8-8.9-17.6-15.8-36-27.9-8.5-5.7-16.7-11.2-18.2-12.2s-3.2-1.9-3.8-1.9c-.5 0-1-.3-1-.8 0-.4-1-1.2-2.3-1.8-1.2-.6-9.6-5.6-18.6-11.2-9-5.6-16.5-10.2-16.6-10.2-.2 0-7-4-15.2-8.8-8.1-4.9-15.5-9.1-16.3-9.5-.8-.4-2.8-1.5-4.5-2.6-4.3-2.6-42-24.1-61.5-35.1-9.1-5.1-28.4-16.1-43-24.3-28.8-16.2-38.3-21.5-41.7-23.1-1.3-.6-2.3-1.4-2.3-1.9 0-.4-.4-.7-.8-.7-.9 0-36.9-19.9-45.5-25.1-2.6-1.6-4.9-2.9-5.1-2.9-.3 0-4.3-2.2-9.1-5-4.8-2.7-8.9-5-9.1-5-.2 0-2.1-1.1-4.2-2.4-2-1.2-6.4-3.7-9.7-5.5-3.3-1.8-6.7-3.6-7.5-4.1-2.5-1.6-33.1-18.1-56.2-30.4-4.9-2.5-12.5-6.6-17-9-4.6-2.4-12.1-6.4-16.9-8.9-11.6-6.1-34.5-19.3-39.6-22.8-2.3-1.6-4.6-2.9-5.2-2.9-.6 0-1.1-.5-1.1-1 0-.6-.6-1-1.3-1-.8 0-2.2-.9-3.2-2s-2.2-2-2.6-2c-.7 0-12.7-8.7-19.3-14-14.3-11.4-34.7-31.6-48.1-47.4-15.2-18.2-31.2-48.3-36.9-69.6-.8-3-2.2-8-3-11-5.2-19.1-6.5-50.6-3-73.8 1-6.9 6.5-28.4 9.1-35.5 10.9-30.4 30.4-60.8 53.8-84.2 32.7-32.8 70.4-51.1 117-56.9 10.3-1.3 46.1-1.5 51-.3 1.1.3 4.7.8 8 1.2 3.2.3 6.2.8 6.5 1 .3.2 2.3.6 4.5.9 19 3 47 13.1 60.8 21.9 3.2 2.1 6 3.7 6.3 3.7.3 0 2.9 1.5 5.7 3.3 2.9 1.9 12 7.3 20.2 12.2 8.3 4.8 23.3 13.7 33.5 19.8 10.2 6 19.9 11.7 21.5 12.7 6.5 3.8 94 55.8 104.5 62.1 14 8.4 20.2 11.9 21 11.9.6 0 1 .4 1 1 0 .5.4 1 .9 1 .8 0 16.9 9.4 36.6 21.2 13.8 8.4 41.9 24.8 42.3 24.8.3 0 1.3.6 2.1 1.4.9.8 3.2 2.2 5.1 3.3 1.9 1 13.5 7.8 25.7 15.1s22.4 13.2 22.7 13.2c.3 0 .5-65.8.4-146.1l-.3-146.1-12.9-7.4c-7.1-4.1-13-7.4-13.2-7.4-.1 0-7.6-4-16.6-8.9-20.1-10.9-26.2-14.2-35.8-19.4-9.5-5.1-37-20.4-39-21.7-.8-.5-4.6-2.6-8.5-4.6-3.8-2-7.7-4.3-8.6-5-.8-.8-1.8-1.4-2.1-1.4-.6 0-6.2-3.3-45.8-26.6-12.4-7.3-26.8-15.5-32-18.3-13.2-7.1-46.1-23.1-47.6-23.1-.3 0-2.1-.7-4-1.5s-4.9-2.1-6.6-2.9c-16-7-53.2-19.2-73.3-24.1-3.8-.9-8.8-2.1-11-2.6-2.2-.6-4.7-1.1-5.5-1.3-.8-.1-4-.8-7-1.4-10.7-2.3-27.3-4.9-36-5.8-3.6-.3-8.1-.8-10-1.1-4.1-.5-67.6-1.3-68.2-.8zM1599.5 323.7c-11 6.3-22.2 12.7-25 14.2-2.7 1.5-13.5 7.7-24 13.6-22.1 12.6-19.8 11.3-43 24.5-9.9 5.7-19.6 11.1-21.5 12.2-1.9 1-4.2 2.3-5 2.9-1.8 1.1-38.7 22.1-44.5 25.3-2.2 1.3-10.5 6-18.5 10.5-8 4.6-17.4 9.9-21 11.9-3.6 1.9-6.9 3.8-7.5 4.2-.5.5-2.8 1.8-5 3s-6.8 3.8-10.2 5.8l-6.3 3.6V748l6.8-3.6c3.7-2 8.7-4.8 11.2-6.2 2.5-1.3 7-3.8 10-5.4 3-1.7 7.9-4.3 10.8-5.9 8.5-4.7 15-8.2 28.2-15.4 6.9-3.7 14.8-8 17.5-9.5 2.8-1.5 12.7-6.9 22-12 9.4-5.1 19-10.4 21.5-11.8 2.5-1.3 7.4-4 11-6 3.6-1.9 13.3-7.2 21.5-11.7 8.3-4.5 18.2-9.9 22-12 3.9-2.1 9.3-5 12-6.5 2.8-1.5 13.1-7.2 23-12.5 23.5-12.9 30.7-16.8 32.8-18 1.6-1 1.7-9.4 1.5-150.2l-.3-149-20 11.4z"/><path d="M801.3 594c-43.2 7.6-68.7 31.5-85.2 79.9-18.1 52.9-6.7 100.4 33.4 139.4 7.3 7.1 21.5 18.1 30 23.4 9.8 5.9 67.1 38.7 81.5 46.5 3 1.7 6 3.4 6.5 3.8.6.4 3.6 2.1 6.7 3.9 3.1 1.7 21.4 12 40.5 22.9 48.8 27.9 64.1 36.6 69.4 39.6 2.6 1.4 12.2 6.8 21.4 12.1 9.2 5.2 17.2 9.5 17.6 9.5.5 0 .9.4.9 1 0 .5.4 1 .9 1 .7 0 29.4 15.9 34.1 18.9.8.6 3.8 2.2 6.5 3.7 2.8 1.4 6.2 3.5 7.7 4.5 1.4 1.1 2.9 1.9 3.2 1.9.4 0 6.6 3.4 13.9 7.7 7.2 4.2 15.7 9 18.7 10.6 3 1.7 6.7 3.8 8.2 4.9 1.4 1 2.8 1.8 3.1 1.8.3 0 4.4 2.2 9.2 5 4.8 2.8 8.8 5 8.9 5 .2 0 6.5 3.6 14 8s13.8 8 14 8c.3 0 4 2.1 8.3 4.6 4.3 2.6 10.1 5.9 12.8 7.4 2.8 1.5 19.2 10.8 36.5 20.7 17.3 9.9 33.5 19.1 36 20.5 2.5 1.4 7.9 4.5 12 6.8 42 23.8 80 81.7 92.6 141.5.7 3.2 2.2 13.5 3 19.5 1.4 11.5.9 34.9-1 50-2 14.9-10 40.6-17.6 56.4-21.5 44.6-52.8 75.4-92.5 91.1-7.8 3.1-26.5 8.2-33.5 9.1-2.5.3-4.7.8-5.1.9-.9.6-21.2 1.8-30.4 1.8-9.7.1-30.7-1.1-32.7-1.8-.7-.2-3.5-.6-6.3-.9-9.9-1.2-29.4-5.1-42.7-8.6-2.1-.6-5.5-1.4-7.5-2-17.1-4.5-42.3-13.2-68.4-23.6-29.1-11.5-38.2-15.7-48.8-22.3-4.5-2.8-8.7-5.1-9.2-5.1s-.9-.4-.9-.8c0-.5-1.1-1.4-2.5-2-1.4-.7-15.2-8.9-30.8-18.3-15.5-9.5-29.5-18-31.2-18.9-4.5-2.5-53.8-32.5-62.8-38.1-4.3-2.7-8-4.9-8.2-4.9-.2 0-9.1-5.3-19.7-11.8-10.6-6.5-26-15.8-34.3-20.7-8.2-5-15.1-9.3-15.3-9.8-.2-.4-.7-.7-1.2-.7s-9.1-5-19.2-11.2c-10-6.1-19.2-11.6-20.3-12.2-1.1-.6-3.9-2.4-6.2-3.9-2.4-1.5-4.7-2.7-5.3-2.7-.5 0-1-.5-1-1 0-.6-.4-1-.9-1-.4 0-9-5-19-11l-18.1-11.1-6.8 4c-3.7 2.1-8.5 4.9-10.7 6.1-2.2 1.2-14.8 8.4-28 16s-25.7 14.7-27.7 15.9c-2.1 1.2-5.3 2.9-7 4-1.8 1-40.9 23.3-86.8 49.6s-83.6 47.8-83.8 48c-.2.2 29.8 18.6 41.3 25.3 1.6.9 3.4 2.1 4 2.5.5.5 6 3.9 12.2 7.5 6.2 3.7 20.3 12.3 31.5 19.1 11.2 6.8 21.9 13.3 23.8 14.3 1.9 1.1 4.1 2.5 4.8 3 .7.6 2.5 1.8 4.1 2.7 1.6.9 7.7 4.5 13.5 8.1 5.9 3.6 11.9 7.2 13.4 8.1 1.5.9 15.1 9.2 30.2 18.4s28.7 17.5 30.2 18.4c1.5.9 7.5 4.6 13.5 8.2 5.9 3.6 30.6 18.7 54.8 33.4 38.9 23.7 47.5 28.9 54.3 33 .9.5 8.2 5 16.2 9.9s15.9 9.7 17.5 10.6c2.6 1.5 45.7 27.8 87 53 15.9 9.7 15.9 9.7 26.1 15.8 20.4 12.3 53.1 26.5 83.9 36.5 18.9 6.2 55.1 15.4 71.5 18.3 1.4.2 4.8.9 7.5 1.4 7.2 1.4 9.6 1.8 21.9 3.5 16 2.3 16.5 2.3 23.1 3 3.3.3 7.6.8 9.5 1 23.9 2.7 80.9 2.7 107.5.1 11.1-1.1 16.9-1.8 18.8-2.2 1.2-.2 3.9-.6 6.2-.9 17.6-2.5 33.9-5.8 50-10 5.5-1.5 11.4-3 13-3.4 4.3-1.1 28.4-9.2 32-10.7 1.7-.7 3.3-1.3 3.7-1.4.4 0 3.4-1.2 6.5-2.6 3.2-1.4 8.1-3.5 10.8-4.7 23.4-10.1 52.6-27.2 74-43.2 19.5-14.7 28.7-22.7 46.1-40.5 51.3-52.3 99.4-140.9 120.3-221 3.7-14.2 8.2-35.3 9.5-44 .2-1.9 1-7.1 1.6-11.5.6-4.4 1.3-9.4 1.5-11 2.7-18.8 2.7-81.3 0-91.5-.2-.8-.6-4.3-.9-7.7-.4-3.4-1.3-10.1-2.1-15-.9-4.8-1.8-10.2-2.1-11.8-.3-1.7-1.4-7.1-2.5-12-1.2-5-2.2-9.7-2.4-10.5-.9-4.2-7-24.8-10.2-34-17.2-50.5-44.2-98.8-79.4-142-2.9-3.6-5.8-7-6.4-7.6-.5-.6-3.5-4-6.5-7.5-5.7-6.7-28.9-30.1-37.5-38-4.2-3.8-10.7-9.4-19.5-16.6-11.8-9.7-36.2-26.8-48.5-34-1.9-1.1-34.8-21.1-38.9-23.6-1.1-.7-4.3-2.6-7.1-4.4-2.8-1.7-6.7-4-8.6-5.1-1.9-1-8.8-5.2-15.4-9.2-6.6-4.1-28-17-47.5-28.8-32.8-19.9-54.3-33-58-35.3-1.9-1.2-27.7-16.7-31.2-18.8-1.5-.9-8.5-5.1-15.5-9.4-7-4.2-14.1-8.5-15.8-9.5-1.6-.9-3.2-2-3.5-2.3-.3-.3-1-.8-1.5-1-1.2-.4-46.2-27.7-57.3-34.6-3.7-2.3-7.4-4.6-8.2-5-.8-.4-17.9-10.6-38-22.8-20.1-12.2-38.5-23.4-41-24.9-2.5-1.4-14.2-8.5-26-15.7-11.8-7.2-22.8-13.9-24.5-14.9-1.6-.9-11.3-6.8-21.5-13-10.1-6.2-22.1-13-26.5-15-11.5-5.4-36.2-14-44.5-15.4-1.4-.2-6.1-1.1-10.5-2-4.4-.8-9.6-1.8-11.5-2.1-1.9-.4-11.6-.8-21.5-1-13.9-.2-20.3.2-28.2 1.5zM380 1598.7l.1 150.8 38.1 22c20.9 12.1 39.9 23.1 42.2 24.3 2.2 1.3 11.3 6.6 20.1 11.7s17.6 10.2 19.6 11.3c7.5 4.2 8.4 4.7 9.9 5.8.8.7 3.8 2.4 6.5 3.9 2.8 1.4 6.4 3.4 8 4.4 1.7 1 17.2 10 34.5 20.1 17.3 10 36.9 21.4 43.5 25.3 6.6 3.8 13.8 8 16 9.2 2.2 1.3 9.6 5.6 16.5 9.5 24.3 14.1 26.6 15.3 33.4 18.1 12.6 5.3 41.2 13.5 53.6 15.5 1.4.2 7.7 1.3 14 2.4 12.7 2.2 16.7 2.7 25.5 3.6 3.3.3 7.1.7 8.5.9 15.2 2.6 86.8 2.6 102 .1 1.4-.3 5.2-.7 8.5-1 17.3-1.6 50.3-7.6 69-12.6 71.9-19.2 132.9-53.2 181.5-101.2 3.6-3.6 7.9-7.9 9.5-9.7l3-3.4-3.5.7c-1.9.3-4.6.8-6 1.1-11.5 2.4-43.3 2.4-60 0-15.6-2.3-19.6-3-27-4.5-3-.7-6.4-1.3-7.5-1.5-5.2-.7-31.5-8.1-44.8-12.6-15.9-5.3-38-14-54.2-21.2-9-4-45.8-22.4-49.5-24.7-.8-.6-4.4-2.6-8-4.6-11.8-6.6-14.2-8-56.4-33.3-23-13.8-42.3-25.1-42.7-25.1-.5 0-.9-.5-.9-1 0-.6-.4-1-.9-1-.8 0-33.1-19-49.6-29.1-1.6-1.1-3.6-2.2-4.4-2.5-.7-.4-7.7-4.5-15.5-9.2-7.7-4.7-15.4-9.2-17.1-10.2-1.6-.9-8.8-5.1-15.8-9.3-7.1-4.3-13.1-7.7-13.4-7.7-.3 0-1.7-.8-3.1-1.9-1.5-1-17.8-10.7-36.2-21.6-18.4-10.8-35.3-20.8-37.5-22.1-2.2-1.3-6.5-3.8-9.5-5.4-3-1.7-10.4-6-16.5-9.6-6-3.7-13.5-8-16.5-9.7-3-1.6-6.2-3.5-7-4.1-.8-.6-2.4-1.6-3.5-2.2-4.9-2.7-53.4-30.9-56.7-33-2.1-1.3-4-2.4-4.2-2.4-.2 0-3.7-1.9-7.8-4.3-4-2.4-9.3-5.5-11.8-6.9-2.5-1.4-7.4-4.2-11-6.3-3.6-2.1-9-5.1-12-6.8-3-1.7-7.2-4.1-9.2-5.4-2.1-1.3-4-2.3-4.2-2.3-.3 0-2.9-1.4-5.8-3.1-2.9-1.8-7.1-4.2-9.3-5.4-4.6-2.5-11.8-6.5-19.2-10.7l-5.3-2.9v150.8z"/></svg>
